<svg width="25" height="24" viewBox="0 0 25 24" fill="none" xmlns="http://www.w3.org/2000/svg">
<path d="M18.1601 22.6698C17.6301 22.6698 16.9501 22.4998 16.1001 21.9998L13.1101 20.2298C12.8001 20.0498 12.2001 20.0498 11.9001 20.2298L8.90012 21.9998C7.13012 23.0498 6.09012 22.6298 5.62012 22.2898C5.16012 21.9498 4.44012 21.0798 4.91012 19.0798L5.62012 16.0098C5.70012 15.6898 5.54012 15.1398 5.30012 14.8998L2.82012 12.4198C1.58012 11.1798 1.68012 10.1198 1.85012 9.59982C2.02012 9.07982 2.56012 8.15982 4.28012 7.86982L7.47012 7.33982C7.77012 7.28982 8.20012 6.96982 8.33012 6.69982L10.1001 3.16982C10.9001 1.55982 11.9501 1.31982 12.5001 1.31982C13.0501 1.31982 14.1001 1.55982 14.9001 3.16982L16.6601 6.68982C16.8001 6.95982 17.2301 7.27982 17.5301 7.32982L20.7201 7.85982C22.4501 8.14982 22.9901 9.06982 23.1501 9.58982C23.3101 10.1098 23.4101 11.1698 22.1801 12.4098L19.7001 14.8998C19.4601 15.1398 19.3101 15.6798 19.3801 16.0098L20.0901 19.0798C20.5501 21.0798 19.8401 21.9498 19.3801 22.2898C19.1301 22.4698 18.7301 22.6698 18.1601 22.6698ZM12.5001 18.5898C12.9901 18.5898 13.4801 18.7098 13.8701 18.9398L16.8601 20.7098C17.7301 21.2298 18.2801 21.2298 18.4901 21.0798C18.7001 20.9298 18.8501 20.3998 18.6301 19.4198L17.9201 16.3498C17.7301 15.5198 18.0401 14.4498 18.6401 13.8398L21.1201 11.3598C21.6101 10.8698 21.8301 10.3898 21.7301 10.0598C21.6201 9.72983 21.1601 9.45982 20.4801 9.34982L17.2901 8.81982C16.5201 8.68982 15.6801 8.06982 15.3301 7.36982L13.5701 3.84982C13.2501 3.20982 12.8501 2.82982 12.5001 2.82982C12.1501 2.82982 11.7501 3.20982 11.4401 3.84982L9.67012 7.36982C9.32012 8.06982 8.48012 8.68982 7.71012 8.81982L4.53012 9.34982C3.85012 9.45982 3.39012 9.72983 3.28012 10.0598C3.17012 10.3898 3.40012 10.8798 3.89012 11.3598L6.37012 13.8398C6.97012 14.4398 7.28012 15.5198 7.09012 16.3498L6.38012 19.4198C6.15012 20.4098 6.31012 20.9298 6.52012 21.0798C6.73012 21.2298 7.27012 21.2198 8.15012 20.7098L11.1401 18.9398C11.5201 18.7098 12.0101 18.5898 12.5001 18.5898Z" fill="#292D32"/>
</svg>
